<?xml version="1.0" standalone="no"?><svg xmlns="http://www.w3.org/2000/svg" viewBox="0 0 1440 320"><path fill="#f7dca2" fill-opacity="1" d="M0,128L30,106.7C60,85,120,43,180,74.7C240,107,300,213,360,256C420,299,480,277,540,224C600,171,660,85,720,90.7C780,96,840,192,900,234.7C960,277,1020,267,1080,245.3C1140,224,1200,192,1260,181.3C1320,171,1380,181,1410,186.7L1440,192L1440,320L1410,320C1380,320,1320,320,1260,320C1200,320,1140,320,1080,320C1020,320,960,320,900,320C840,320,780,320,720,320C660,320,600,320,540,320C480,320,420,320,360,320C300,320,240,320,180,320C120,320,60,320,30,320L0,320Z"></path></svg>